<?xml version="1.0" standalone="no"?>
<!DOCTYPE svg PUBLIC "-//W3C//DTD SVG 20010904//EN"
 "http://www.w3.org/TR/2001/REC-SVG-20010904/DTD/svg10.dtd">
<svg version="1.0" xmlns="http://www.w3.org/2000/svg"
 width="512.000000pt" height="512.000000pt" viewBox="0 0 512.000000 512.000000"
 preserveAspectRatio="xMidYMid meet">
<metadata>
Created by potrace 1.16, written by Peter Selinger 2001-2019
</metadata>
<g transform="translate(0.000000,512.000000) scale(0.100000,-0.100000)"
fill="#000000" stroke="none">
<path d="M1440 3440 l0 -240 -80 0 -80 0 0 -80 0 -80 -160 0 -160 0 0 -80 0
-80 80 0 80 0 0 -160 0 -160 80 0 80 0 0 -80 0 -80 160 0 160 0 0 -80 0 -80
80 0 80 0 0 -80 0 -80 80 0 80 0 0 -80 0 -80 240 0 240 0 0 -80 0 -80 160 0
160 0 0 80 0 80 240 0 240 0 0 80 0 80 80 0 80 0 0 80 0 80 80 0 80 0 0 80 0
80 160 0 160 0 0 80 0 80 80 0 80 0 0 160 0 160 80 0 80 0 0 80 0 80 -160 0
-160 0 0 80 0 80 -80 0 -80 0 0 240 0 240 -1120 0 -1120 0 0 -240z m1280 0 l0
-80 240 0 240 0 0 -80 0 -80 80 0 80 0 0 -80 0 -80 80 0 80 0 0 -320 0 -320
-80 0 -80 0 0 -80 0 -80 -80 0 -80 0 0 -80 0 -80 -240 0 -240 0 0 -80 0 -80
-160 0 -160 0 0 80 0 80 -240 0 -240 0 0 80 0 80 -80 0 -80 0 0 80 0 80 -80 0
-80 0 0 320 0 320 80 0 80 0 0 80 0 80 80 0 80 0 0 80 0 80 240 0 240 0 0 80
0 80 160 0 160 0 0 -80z"/>
<path d="M2560 3280 l0 -80 80 0 80 0 0 80 0 80 -80 0 -80 0 0 -80z"/>
<path d="M2080 3120 l0 -80 -80 0 -80 0 0 -80 0 -80 -80 0 -80 0 0 -80 0 -80
80 0 80 0 0 80 0 80 80 0 80 0 0 80 0 80 80 0 80 0 0 80 0 80 -80 0 -80 0 0
-80z"/>
<path d="M3040 2800 l0 -80 80 0 80 0 0 -80 0 -80 -80 0 -80 0 0 -80 0 -80 80
0 80 0 0 80 0 80 80 0 80 0 0 80 0 80 -80 0 -80 0 0 80 0 80 -80 0 -80 0 0
-80z"/>
<path d="M2240 2320 l0 -80 160 0 160 0 0 -80 0 -80 80 0 80 0 0 80 0 80 -80
0 -80 0 0 80 0 80 -160 0 -160 0 0 -80z"/>
<path d="M2080 1520 l0 -80 80 0 80 0 0 80 0 80 -80 0 -80 0 0 -80z"/>
<path d="M2880 1520 l0 -80 80 0 80 0 0 80 0 80 -80 0 -80 0 0 -80z"/>
</g>
</svg>
