<?xml version="1.0" standalone="no"?>
<!DOCTYPE svg PUBLIC "-//W3C//DTD SVG 20010904//EN"
 "http://www.w3.org/TR/2001/REC-SVG-20010904/DTD/svg10.dtd">
<svg version="1.0" xmlns="http://www.w3.org/2000/svg"
 width="512.000000pt" height="512.000000pt" viewBox="0 0 512.000000 512.000000"
 preserveAspectRatio="xMidYMid meet">
<metadata>
Created by potrace 1.16, written by Peter Selinger 2001-2019
</metadata>
<g transform="translate(0.000000,512.000000) scale(0.100000,-0.100000)"
fill="#000000" stroke="none">
<path d="M2400 4560 l0 -80 -160 0 -160 0 0 -80 0 -80 -80 0 -80 0 0 -80 0
-80 -80 0 -80 0 0 -80 0 -80 -80 0 -80 0 0 -80 0 -80 -80 0 -80 0 0 -80 0 -80
-80 0 -80 0 0 -80 0 -80 -80 0 -80 0 0 -80 0 -80 80 0 80 0 0 -80 0 -80 80 0
80 0 0 -80 0 -80 160 0 160 0 0 80 0 80 80 0 80 0 0 80 0 80 160 0 160 0 0
-960 0 -960 80 0 80 0 0 -80 0 -80 160 0 160 0 0 80 0 80 80 0 80 0 0 960 0
960 160 0 160 0 0 -80 0 -80 80 0 80 0 0 -80 0 -80 160 0 160 0 0 80 0 80 80
0 80 0 0 80 0 80 80 0 80 0 0 80 0 80 -80 0 -80 0 0 80 0 80 -80 0 -80 0 0 80
0 80 -80 0 -80 0 0 80 0 80 -80 0 -80 0 0 80 0 80 -80 0 -80 0 0 80 0 80 -80
0 -80 0 0 80 0 80 -160 0 -160 0 0 80 0 80 -160 0 -160 0 0 -80z m320 -240 l0
-160 80 0 80 0 0 80 0 80 80 0 80 0 0 -80 0 -80 80 0 80 0 0 -80 0 -80 80 0
80 0 0 -80 0 -80 80 0 80 0 0 -80 0 -80 80 0 80 0 0 -80 0 -80 80 0 80 0 0
-80 0 -80 -80 0 -80 0 0 -80 0 -80 -160 0 -160 0 0 80 0 80 -80 0 -80 0 0 80
0 80 -80 0 -80 0 0 80 0 80 -160 0 -160 0 0 80 0 80 -160 0 -160 0 0 -80 0
-80 -80 0 -80 0 0 -80 0 -80 -160 0 -160 0 0 -80 0 -80 -160 0 -160 0 0 -80 0
-80 -80 0 -80 0 0 80 0 80 -80 0 -80 0 0 80 0 80 80 0 80 0 0 80 0 80 80 0 80
0 0 80 0 80 80 0 80 0 0 80 0 80 80 0 80 0 0 80 0 80 80 0 80 0 0 80 0 80 80
0 80 0 0 -80 0 -80 80 0 80 0 0 160 0 160 160 0 160 0 0 -160z"/>
<path d="M2400 4080 l0 -80 80 0 80 0 0 80 0 80 -80 0 -80 0 0 -80z"/>
<path d="M2880 4080 l0 -80 80 0 80 0 0 80 0 80 -80 0 -80 0 0 -80z"/>
<path d="M1920 3920 l0 -80 80 0 80 0 0 80 0 80 -80 0 -80 0 0 -80z"/>
<path d="M1600 3600 l0 -80 80 0 80 0 0 80 0 80 -80 0 -80 0 0 -80z"/>
<path d="M3360 3440 l0 -80 80 0 80 0 0 80 0 80 -80 0 -80 0 0 -80z"/>
</g>
</svg>
